<svg xmlns="http://www.w3.org/2000/svg" xmlns:xlink="http://www.w3.org/1999/xlink" viewBox="0 0 48 48" width="48" height="48" style="width: 100%; height: 100%; transform: translate3d(0px, 0px, 0px); content-visibility: visible;" preserveAspectRatio="xMidYMid meet">
  <defs>
    <clipPath id="__lottie_element_72">
      <rect width="48" height="48" x="0" y="0"></rect>
    </clipPath>
  </defs>
  <g clip-path="url(#__lottie_element_72)">
    <g style="display: block;" transform="matrix(1,0,0,1,21.899999618530273,24.200000762939453)" opacity="1">
      <path fill="rgb(0,0,0)" fill-opacity="1" d=" M0,-3.25 C1.7936749458312988,-3.25 3.25,-1.7936749458312988 3.25,0 C3.25,1.7936749458312988 1.7936749458312988,3.25 0,3.25 C-1.7936749458312988,3.25 -3.25,1.7936749458312988 -3.25,0 C-3.25,-1.7936749458312988 -1.7936749458312988,-3.25 0,-3.25z M0.7960000038146973,-9.994999885559082 C2.5880000591278076,-9.550000190734863 3.575000047683716,-7.699999809265137 3.1480000019073486,-5.933000087738037 C2.9639999866485596,-5.171000003814697 2.755000114440918,-4.4120001792907715 2.440000057220459,-3.4560000896453857 C2.125,-2.5 3.7939999103546143,-2.138000011444092 2.634999990463257,0.45100000500679016 C1.746999979019165,2.434999942779541 -3.75,0.7250000238418579 -2.7279999256134033,-2.1700000762939453 C-1.840999960899353,-4.681000232696533 -1.024999976158142,-7.050000190734863 -0.17000000178813934,-9.472999572753906 C-0.019999999552965164,-9.89900016784668 0.3869999945163727,-10.095999717712402 0.7960000038146973,-9.994999885559082z"></path>
    </g>
    <g style="display: block;" transform="matrix(1,0,0,1,24,24)" opacity="1">
      <path fill="rgb(0,0,0)" fill-opacity="1" d=" M-0.2070000022649765,-2.4600000381469727 C0.26600000262260437,-2.0169999599456787 0.6620000004768372,-2.006999969482422 1.3259999752044678,-2.006999969482422 C1.3259999752044678,-2.006999969482422 6.616000175476074,-2.006999969482422 6.616000175476074,-2.006999969482422 C7.465000152587891,-2.00600004196167 8.239999771118164,-1.5269999504089355 8.619000434875488,-0.7680000066757202 C8.619000434875488,-0.7680000066757202 8.79800033569336,-0.4099999964237213 8.79800033569336,-0.4099999964237213 C9.199999809265137,0.3930000066757202 8.942000389099121,1.36899995803833 8.197999954223633,1.86899995803833 C8.074000358581543,1.9520000219345093 8,2.0910000801086426 8,2.240000009536743 C8,2.240000009536743 8,2.309000015258789 8,2.309000015258789 C8,2.434000015258789 8.041000366210938,2.555999994277954 8.116000175476074,2.6559998989105225 C8.88599967956543,3.678999900817871 8.704999923706055,5.133999824523926 7.704999923706055,5.934000015258789 C7.704999923706055,5.934000015258789 7.205999851226807,6.331999778747559 7.205999851226807,6.331999778747559 C7.081999778747559,6.431000232696533 7.0329999923706055,6.5980000495910645 7.083000183105469,6.748000144958496 C7.083000183105469,6.748000144958496 7.1529998779296875,6.953999996185303 7.1529998779296875,6.953999996185303 C7.369999885559082,7.607999801635742 7.252999782562256,8.326000213623047 6.840000152587891,8.876999855041504 C6.310999870300293,9.581999778747559 5.480999946594238,9.998000144958496 4.599999904632568,9.996999740600586 C4.599999904632568,9.996999740600586 0.6869999766349792,9.994999885559082 0.6869999766349792,9.994999885559082 C-1.4010000228881836,9.994000434875488 -3.453000068664551,9.447999954223633 -5.264999866485596,8.41100025177002 C-5.264999866485596,8.41100025177002 -5.538000106811523,8.255999565124512 -5.538000106811523,8.255999565124512 C-5.840000152587891,8.083000183105469 -6.183000087738037,7.992000102996826 -6.531000137329102,7.992000102996826 C-6.531000137329102,7.992000102996826 -9,7.992000102996826 -9,7.992000102996826 C-9.552000045776367,7.992000102996826 -10,7.544000148773193 -10,6.992000102996826 C-10,6.992000102996826 -10,0.9950000047683716 -10,0.9950000047683716 C-10,0.44200000166893005 -9.550999641418457,-0.006000000052154064 -8.998000144958496,-0.004999999888241291 C-8.998000144958496,-0.004999999888241291 -6.210999965667725,0 -6.210999965667725,0 C-5.784999847412109,0.0010000000474974513 -5.406000137329102,-0.2680000066757202 -5.264999866485596,-0.6700000166893005 C-5.264999866485596,-0.6700000166893005 -5.059000015258789,-0.8330000042915344 -4.901000022888184,-1.274999976158142 C-4.301000118255615,-2.950000047683716 -0.859000027179718,-3.2170000076293945 -0.2070000022649765,-2.4600000381469727z"></path>
    </g>
  </g>
</svg>
