<svg xmlns="http://www.w3.org/2000/svg" xmlns:xlink="http://www.w3.org/1999/xlink" viewBox="0 0 48 48" width="48" height="48" style="width: 100%; height: 100%; transform: translate3d(0px, 0px, 0px); content-visibility: visible;" preserveAspectRatio="xMidYMid meet">
  <defs>
    <clipPath id="__lottie_element_72">
      <rect width="48" height="48" x="0" y="0"></rect>
    </clipPath>
  </defs>
  <g clip-path="url(#__lottie_element_72)">
    <g style="display: block;" transform="matrix(1,0,0,1,24,24)" opacity="1">
      <path fill="rgb(0,0,0)" fill-opacity="1" d=" M-2.7780001163482666,-10.204999923706055 C-2.618000030517578,-10.663999557495117 -2.1500000953674316,-10.940999984741211 -1.6699999570846558,-10.862000465393066 C-1.6699999570846558,-10.862000465393066 -0.6299999952316284,-10.687999725341797 -0.6299999952316284,-10.687999725341797 C1.6200000047683716,-10.312000274658203 3.0999999046325684,-8.135000228881836 2.621999979019165,-5.90500020980835 C2.621999979019165,-5.90500020980835 2,-3 2,-3 C2,-3 6.060999870300293,-3 6.060999870300293,-3 C7.7779998779296875,-3 9.265000343322754,-1.8079999685287476 9.637999534606934,-0.13199999928474426 C9.868000030517578,0.9039999842643738 9.631999969482422,1.996000051498413 9,2.8489999771118164 C9,2.8489999771118164 9.020000457763672,2.937000036239624 9.020000457763672,2.937000036239624 C9.319000244140625,4.2210001945495605 8.932999610900879,5.567999839782715 8,6.5 C8,6.5 8,6.543000221252441 8,6.543000221252441 C8,6.543000221252441 7.991000175476074,6.769000053405762 7.991000175476074,6.769000053405762 C7.9730000495910645,6.994999885559082 7.927000045776367,7.2179999351501465 7.855000019073486,7.433000087738037 C7.855000019073486,7.433000087738037 7.749000072479248,7.715000152587891 7.749000072479248,7.715000152587891 C7.164000034332275,9.090999603271484 5.809000015258789,10 4.295000076293945,10 C4.295000076293945,10 0.6890000104904175,10 0.6890000104904175,10 C0.6890000104904175,10 0.2980000078678131,9.993000030517578 0.2980000078678131,9.993000030517578 C-1.5260000228881836,9.932999610900879 -3.312999963760376,9.458999633789062 -4.926000118255615,8.604999542236328 C-4.926000118255615,8.604999542236328 -5.269000053405762,8.416000366210938 -5.269000053405762,8.416000366210938 C-5.269000053405762,8.416000366210938 -5.538000106811523,8.26200008392334 -5.538000106811523,8.26200008392334 C-5.802999973297119,8.109999656677246 -6.098999977111816,8.020999908447266 -6.401000022888184,8.001999855041504 C-6.401000022888184,8.001999855041504 -6.531000137329102,7.998000144958496 -6.531000137329102,7.998000144958496 C-6.531000137329102,7.998000144958496 -8.5,7.998000144958496 -8.5,7.998000144958496 C-9.32800006866455,7.998000144958496 -10,7.326000213623047 -10,6.498000144958496 C-10,6.498000144958496 -10,0.5 -10,0.5 C-10,-0.328000009059906 -9.32800006866455,-1 -8.5,-1 C-8.5,-1 -6.710000038146973,-1 -6.710000038146973,-1 C-6.710000038146973,-1 -6.552999973297119,-1.0130000114440918 -6.552999973297119,-1.0130000114440918 C-6.244999885559082,-1.062000036239624 -5.9770002365112305,-1.2510000467300415 -5.828999996185303,-1.5260000228881836 C-5.828999996185303,-1.5260000228881836 -5.765999794006348,-1.6699999570846558 -5.765999794006348,-1.6699999570846558 C-5.765999794006348,-1.6699999570846558 -2.7780001163482666,-10.204999923706055 -2.7780001163482666,-10.204999923706055z M-3.878000020980835,-1.0089999437332153 C-4.298999786376953,0.1940000057220459 -5.434999942779541,1 -6.710000038146973,1 C-6.710000038146973,1 -8,1 -8,1 C-8,1 -8,5.998000144958496 -8,5.998000144958496 C-8,5.998000144958496 -6.531000137329102,5.998000144958496 -6.531000137329102,5.998000144958496 C-5.835000038146973,5.998000144958496 -5.151000022888184,6.179999828338623 -4.546000003814697,6.526000022888184 C-4.546000003814697,6.526000022888184 -4.275000095367432,6.679999828338623 -4.275000095367432,6.679999828338623 C-4.275000095367432,6.679999828338623 -3.990000009536743,6.8379998207092285 -3.990000009536743,6.8379998207092285 C-2.549999952316284,7.599999904632568 -0.9430000185966492,8 0.6890000104904175,8 C0.6890000104904175,8 4.295000076293945,8 4.295000076293945,8 C5.048999786376953,8 5.718999862670898,7.515999794006348 5.958000183105469,6.801000118255615 C5.958000183105469,6.801000118255615 5.988999843597412,6.673999786376953 5.988999843597412,6.673999786376953 C5.995999813079834,6.630000114440918 6,6.586999893188477 6,6.543000221252441 C6,6.543000221252441 6,5.671000003814697 6,5.671000003814697 C6,5.671000003814697 6.586999893188477,5.085000038146973 6.586999893188477,5.085000038146973 C6.974999904632568,4.697000026702881 7.164000034332275,4.1579999923706055 7.110000133514404,3.619999885559082 C7.110000133514404,3.619999885559082 7.072000026702881,3.3889999389648438 7.072000026702881,3.3889999389648438 C7.072000026702881,3.3889999389648438 7.052000045776367,3.302999973297119 7.052000045776367,3.302999973297119 C7.052000045776367,3.302999973297119 6.8429999351501465,2.4019999504089355 6.8429999351501465,2.4019999504089355 C6.8429999351501465,2.4019999504089355 7.392000198364258,1.659000039100647 7.392000198364258,1.659000039100647 C7.682000160217285,1.2680000066757202 7.788000106811523,0.7670000195503235 7.684999942779541,0.3019999861717224 C7.514999866485596,-0.45899999141693115 6.841000080108643,-1 6.060999870300293,-1 C6.060999870300293,-1 2,-1 2,-1 C1.3960000276565552,-1 0.8240000009536743,-1.2740000486373901 0.4440000057220459,-1.7430000305175781 C0.06499999761581421,-2.2130000591278076 -0.0820000022649765,-2.8289999961853027 0.04399999976158142,-3.4189999103546143 C0.04399999976158142,-3.4189999103546143 0.6669999957084656,-6.322999954223633 0.6669999957084656,-6.322999954223633 C0.906000018119812,-7.438000202178955 0.16599999368190765,-8.527000427246094 -0.9589999914169312,-8.71500015258789 C-0.9589999914169312,-8.71500015258789 -1.1690000295639038,-8.75 -1.1690000295639038,-8.75 C-1.1690000295639038,-8.75 -3.878000020980835,-1.0089999437332153 -3.878000020980835,-1.0089999437332153z"></path>
    </g>
  </g>
</svg>
